<!DOCTYPE svg PUBLIC "-//W3C//DTD SVG 20010904//EN" "http://www.w3.org/TR/2001/REC-SVG-20010904/DTD/svg10.dtd">
<svg version="1.0" xmlns="http://www.w3.org/2000/svg" width="641px" height="781px" viewBox="0 0 6410 7810" preserveAspectRatio="xMidYMid meet">
<g id="layer101" fill="#213d63" stroke="none">
 <path d="M6340 7789 c-25 -10 -121 -48 -215 -84 -93 -36 -213 -83 -265 -105 -52 -21 -255 -102 -450 -181 -534 -213 -783 -314 -1060 -429 -96 -40 -211 -87 -255 -105 -113 -46 -211 -87 -610 -255 -476 -201 -559 -237 -635 -272 -36 -17 -105 -47 -155 -68 -130 -54 -265 -114 -385 -171 -58 -27 -109 -49 -113 -49 -5 0 -57 -24 -117 -54 -60 -30 -119 -57 -132 -61 -12 -4 -70 -31 -128 -60 -58 -29 -117 -56 -130 -60 -35 -10 -697 -342 -795 -398 -238 -136 -393 -245 -471 -334 -235 -270 -355 -500 -404 -778 -25 -140 -25 -228 0 -351 27 -130 42 -176 102 -297 32 -66 57 -132 68 -187 40 -192 124 -374 240 -520 113 -143 209 -228 375 -330 111 -68 283 -169 365 -213 41 -22 101 -55 132 -73 101 -58 1268 -634 1488 -734 69 -32 215 -99 325 -149 110 -51 247 -114 305 -141 58 -26 224 -103 370 -170 399 -183 526 -240 845 -380 66 -29 172 -77 236 -106 65 -30 120 -54 124 -54 3 0 59 -24 123 -54 155 -71 330 -149 532 -236 214 -93 343 -149 460 -200 52 -23 141 -61 198 -85 l102 -43 0 140 c0 123 -2 139 -17 144 -17 6 -115 49 -408 179 -66 30 -183 81 -260 115 -77 34 -187 84 -245 110 -107 49 -256 116 -390 175 -178 78 -446 199 -860 390 -63 30 -176 81 -250 115 -74 34 -187 86 -250 115 -63 30 -180 84 -260 120 -80 37 -185 86 -235 110 -49 24 -216 103 -370 176 -809 382 -1593 779 -1940 982 -395 232 -513 332 -658 559 -86 134 -167 342 -167 429 0 21 -4 41 -10 44 -15 9 -12 252 4 339 48 249 162 476 354 706 112 134 204 204 442 338 103 58 613 312 626 312 3 0 58 24 122 54 257 118 559 248 1032 445 225 93 317 130 425 172 55 22 143 57 195 78 146 61 573 228 1110 435 80 30 209 80 288 111 78 30 145 55 148 55 4 0 75 26 158 59 278 108 586 223 761 286 66 23 165 60 220 80 272 103 382 143 408 149 l27 6 0 140 c0 155 3 150 -70 119z"/>
 <path d="M6393 4365 c-18 -20 -16 -93 2 -111 13 -14 15 -8 15 55 0 39 -1 71 -2 71 -2 -1 -9 -7 -15 -15z"/>
 </g>
<g id="layer102" fill="#b0be36" stroke="none">
 <path d="M6393 4365 c-18 -20 -16 -93 2 -111 13 -14 15 -8 15 55 0 39 -1 71 -2 71 -2 -1 -9 -7 -15 -15z"/>
 <path d="M186 3507 c56 -295 243 -599 473 -768 104 -77 333 -216 511 -312 41 -22 101 -55 132 -73 101 -58 1268 -634 1488 -734 69 -32 215 -99 325 -149 110 -51 247 -114 305 -141 58 -26 224 -103 370 -170 399 -183 526 -240 845 -380 66 -29 172 -77 236 -106 65 -30 120 -54 124 -54 3 0 59 -24 123 -54 155 -71 330 -149 532 -236 214 -93 343 -149 460 -200 52 -23 141 -61 198 -85 l102 -43 0 140 c0 123 -2 139 -17 144 -17 6 -115 49 -408 179 -66 30 -183 81 -260 115 -77 34 -187 84 -245 110 -107 49 -256 116 -390 175 -178 78 -446 199 -860 390 -63 30 -176 81 -250 115 -74 34 -187 86 -250 115 -63 30 -180 84 -260 120 -80 37 -185 86 -235 110 -49 24 -216 103 -370 176 -809 382 -1593 779 -1940 982 -255 150 -390 242 -469 322 -78 78 -177 209 -227 302 -23 40 -44 75 -49 78 -4 3 -1 -28 6 -68z"/>
 </g>
</svg>
